<?xml version="1.0" encoding="UTF-8"?>
<svg version="1.1" xmlns="http://www.w3.org/2000/svg" width="1607" height="529">
<path d="M0 0 C530.31 0 1060.62 0 1607 0 C1607 174.57 1607 349.14 1607 529 C1076.69 529 546.38 529 0 529 C0 354.43 0 179.86 0 0 Z " fill="#FEFEFE" transform="translate(0,0)"/>
<path d="M0 0 C73.85652798 0 73.85652798 0 94 20 C100.60577352 26.81041098 107.04153145 33.78876693 113.23046875 40.98046875 C115.6088442 43.69486193 118.05508905 46.34572387 120.5 49 C123.53894492 52.30022784 126.56156211 55.60949474 129.5 59 C132.86322638 62.87817013 136.33335671 66.65527811 139.80810547 70.43310547 C144.24223628 75.25584891 148.6251824 80.1234112 153 85 C154.49971128 86.66692647 155.99971321 88.33359149 157.5 90 C163.5 96.66666667 169.5 103.33333333 175.5 110 C176.23347656 110.8146875 176.96695313 111.629375 177.72265625 112.46875 C179.31493956 114.23856061 180.90598487 116.00948549 182.49609375 117.78125 C183.70458984 119.12703125 183.70458984 119.12703125 184.9375 120.5 C185.66839844 121.3146875 186.39929688 122.129375 187.15234375 122.96875 C188.4022819 124.34288919 189.6864925 125.6864925 191 127 C191.495 64.135 191.495 64.135 192 0 C203.22 0 214.44 0 226 0 C226 58.41 226 116.82 226 177 C150.05863192 177 150.05863192 177 139.3125 168.375 C138.77270508 167.941875 138.23291016 167.50875 137.67675781 167.0625 C132.56697766 162.8555186 128.26195607 158.05120719 124 153 C122.50578197 151.32814766 121.00572831 149.66149331 119.5 148 C74.5 98 74.5 98 72.2578125 95.5078125 C70.73291756 93.81407106 69.20684598 92.12138831 67.6796875 90.4296875 C64.30087292 86.68435744 60.93104035 82.93481793 57.625 79.125 C54.17863713 75.1656901 50.62493737 71.30733387 47.06933594 67.4465332 C43.7363326 63.82111036 40.46475395 60.1494645 37.2421875 56.42578125 C36.51888012 55.59556994 35.7785963 54.7785963 35 54 C34.67 94.59 34.34 135.18 34 177 C22.78 177 11.56 177 0 177 C0 118.59 0 60.18 0 0 Z " fill="#1414A0" transform="translate(452,301)"/>
<path d="M0 0 C69.3 0 138.6 0 210 0 C210 8.25 210 16.5 210 25 C165.12 25 120.24 25 74 25 C74 39.85 74 54.7 74 70 C114.92 70 155.84 70 198 70 C198 78.25 198 86.5 198 95 C157.08 95 116.16 95 74 95 C74.05458976 127.30032417 74.05458976 127.30032417 80 142 C88.66509364 149.29692096 99.63657948 150.44787303 110.62182617 150.43237305 C112.27746582 150.44766052 112.27746582 150.44766052 113.96655273 150.46325684 C117.57541104 150.493189 121.18400305 150.50262259 124.79296875 150.51171875 C127.3107439 150.52858007 129.82851071 150.54673225 132.3462677 150.56611633 C138.27096866 150.60863812 144.19564286 150.63824688 150.12044269 150.66143972 C157.53676531 150.69127576 164.95292819 150.74144734 172.36914062 150.79101562 C185.57937932 150.87687594 198.78960625 150.94276013 212 151 C212 159.58 212 168.16 212 177 C204.90600918 177.88674885 198.06417573 178.3310049 190.9375 178.55078125 C190.27051086 178.57159571 189.60352173 178.59241016 188.9163208 178.61385536 C167.39663708 179.26268663 145.86171295 179.18718214 124.33447266 179.18530273 C118.2058244 179.18520056 112.07729053 179.19895233 105.94866943 179.21607494 C101.13872784 179.22730401 96.32881321 179.22921878 91.51885986 179.22869301 C89.26116536 179.22985292 87.00346967 179.2341588 84.74578857 179.24202538 C73.09666718 179.27889064 61.54083993 179.04157042 49.92578125 178.0949707 C48.45251122 177.97546319 48.45251122 177.97546319 46.94947815 177.85354137 C32.78104985 176.57734032 19.48899219 172.69607864 9.52734375 161.9609375 C0.77910236 150.72918001 -0.46060176 136.69915661 -0.34057617 122.94799805 C-0.33965438 121.57472923 -0.34006238 120.20145899 -0.34167194 118.8281908 C-0.34234164 115.19271117 -0.3251164 111.55753545 -0.30384064 107.92212677 C-0.28659334 104.49482907 -0.28594256 101.06760054 -0.28381348 97.64025879 C-0.26815107 87.65596653 -0.22626727 77.67172928 -0.1875 67.6875 C-0.125625 45.350625 -0.06375 23.01375 0 0 Z " fill="#1414A0" transform="translate(708,301)"/>
<path d="M0 0 C0 8.58 0 17.16 0 26 C-3.361875 25.54625 -6.72375 25.0925 -10.1875 24.625 C-14.45665104 24.06964113 -18.72798352 23.5328321 -23 23 C-23.88010742 22.88833496 -24.76021484 22.77666992 -25.66699219 22.66162109 C-58.84595695 18.56811245 -98.85477468 16.78959268 -127.57421875 36.79296875 C-139.32328814 46.57267032 -146.03277704 60.56167669 -147.78466797 75.60400391 C-149.70839 97.00922842 -147.44452228 116.62226347 -134.25 134.3125 C-121.0677102 149.88703899 -101.20413614 154.60109605 -81.7578125 156.58984375 C-56.96892783 158.62773227 -32.27054791 156.31385898 -7.796875 152.33203125 C-4.55215936 151.94683456 -1.26749997 152 2 152 C2 161.57 2 171.14 2 181 C-2.599375 181.474375 -7.19875 181.94875 -11.9375 182.4375 C-14.05466431 182.65877563 -14.05466431 182.65877563 -16.21459961 182.88452148 C-34.02759318 184.69230902 -51.72386825 185.2403681 -69.625 185.25 C-70.75918365 185.25067474 -71.89336731 185.25134949 -73.06192017 185.25204468 C-172.44968659 185.15884714 -172.44968659 185.15884714 -205.625 154.9375 C-214.12884458 145.77951353 -219.58981018 134.93566435 -223 123 C-223.19464844 122.35675781 -223.38929688 121.71351563 -223.58984375 121.05078125 C-231.25629552 95.14518931 -228.39591255 65.30630879 -216.25 41.25 C-205.50393863 22.51327761 -186.81894015 11.30201357 -166.45703125 5.72265625 C-152.16439135 2.01252631 -137.63686104 -0.16598898 -123 -2 C-122.07574219 -2.12004395 -121.15148438 -2.24008789 -120.19921875 -2.36376953 C-80.65519941 -7.27748008 -39.47712344 -4.06382153 0 0 Z " fill="#1515A0" transform="translate(1159,299)"/>
<path d="M0 0 C8.3710928 4.52818343 13.06944723 10.9758378 15.97558594 19.99926758 C16.61451726 23.23172878 16.63649504 26.43982051 16.671875 29.72265625 C16.67994675 30.4432019 16.68801849 31.16374756 16.69633484 31.90612793 C16.71014347 33.43251161 16.72087999 34.95892576 16.72875977 36.48535156 C16.74020995 38.0251591 16.76054986 39.56492917 16.7902832 41.10449219 C17.01964117 53.0003547 16.50149456 63.6503406 8.68359375 73.31640625 C2.77655797 79.41114223 -3.95376782 82.40544659 -12.46875 82.55859375 C-23.48247203 82.5962475 -30.18141952 81.5213896 -38.515625 73.77734375 C-42.08505624 69.49402626 -43.82698788 64.55795714 -45.56640625 59.31640625 C-46.06140625 57.83140625 -46.06140625 57.83140625 -46.56640625 56.31640625 C-46.8198505 51.76384828 -46.83742097 47.20882676 -46.86157227 42.65014648 C-46.87300602 41.15200287 -46.89331884 39.65389716 -46.9230957 38.15600586 C-47.15665731 26.39311258 -46.54486833 15.86481605 -38.81640625 6.31640625 C-28.69393785 -4.12771068 -13.09712884 -5.58525405 0 0 Z " fill="#042E64" transform="translate(137.56640625,74.68359375)"/>
<path d="M0 0 C2.875 1.625 2.875 1.625 4.875 3.625 C5.535 2.305 6.195 0.985 6.875 -0.375 C8.85409398 -0.40186553 10.83328971 -0.42133375 12.8125 -0.4375 C13.91464844 -0.44910156 15.01679687 -0.46070312 16.15234375 -0.47265625 C18.875 -0.375 18.875 -0.375 19.875 0.625 C19.98980277 2.43791956 20.03464942 4.25530937 20.05200195 6.07177734 C20.07125481 7.82027481 20.07125481 7.82027481 20.09089661 9.60409546 C20.09828354 10.87685333 20.10567047 12.14961121 20.11328125 13.4609375 C20.121353 14.76519684 20.12942474 16.06945618 20.13774109 17.41323853 C20.152795 20.18581005 20.16261563 22.95835578 20.17016602 25.73095703 C20.18114806 29.25568907 20.21543802 32.77977525 20.25533772 36.30428123 C20.28806151 39.68980508 20.29230793 43.07526788 20.30078125 46.4609375 C20.31828934 47.71345306 20.33579742 48.96596863 20.35383606 50.25643921 C20.33322684 58.690042 19.62338436 67.08356534 14.05732727 73.82723999 C7.8332499 80.01836961 0.42685677 81.71165459 -8.125 82.0625 C-16.22842516 81.84348851 -23.16148106 79.19095101 -29.125 73.625 C-28.54175605 70.39959071 -27.60285202 68.6492389 -25.3125 66.3125 C-24.81105469 65.78011719 -24.30960938 65.24773437 -23.79296875 64.69921875 C-22.125 63.625 -22.125 63.625 -20.12890625 63.828125 C-18.125 64.625 -18.125 64.625 -14.875 66.6875 C-10.71156587 69.12137049 -7.91525955 69.23328693 -3.125 68.625 C0.31746086 66.90376957 2.27918623 65.62705044 4.25 62.3125 C5.01510082 59.02256649 5.00698677 55.9906627 4.875 52.625 C4.00875 53.285 3.1425 53.945 2.25 54.625 C-3.31785827 57.82452592 -9.92182582 57.41553081 -16.125 56.625 C-19.86822127 55.08792846 -22.69108195 53.52886414 -25.3125 50.4375 C-25.78042969 49.90769531 -26.24835937 49.37789062 -26.73046875 48.83203125 C-30.93238467 42.18194022 -31.6514608 35.99787876 -31.5625 28.3125 C-31.55347656 27.38550293 -31.54445313 26.45850586 -31.53515625 25.50341797 C-31.33454324 17.56945225 -30.66034022 10.58002849 -25.18359375 4.453125 C-18.22794527 -1.95170786 -8.98873895 -3.75478969 0 0 Z " fill="#052F65" transform="translate(747.125,97.375)"/>
<path d="M0 0 C0.66 0 1.32 0 2 0 C2.66 -0.66 3.32 -1.32 4 -2 C7.5625 -2.1875 7.5625 -2.1875 11 -2 C12.73298788 -0.26701212 12.1544439 2.08539385 12.17700195 4.44677734 C12.19625481 6.19527481 12.19625481 6.19527481 12.21589661 7.97909546 C12.22328354 9.25185333 12.23067047 10.52461121 12.23828125 11.8359375 C12.246353 13.14019684 12.25442474 14.44445618 12.26274109 15.78823853 C12.277795 18.56081005 12.28761563 21.33335578 12.29516602 24.10595703 C12.30614806 27.63068907 12.34043802 31.15477525 12.38033772 34.67928123 C12.41306151 38.06480508 12.41730793 41.45026788 12.42578125 44.8359375 C12.44328934 46.08845306 12.46079742 47.34096863 12.47883606 48.63143921 C12.45870928 56.86762364 11.81902756 65.34511457 6.38569641 71.96762085 C0.65515323 77.54948261 -6.33537124 79.14160288 -14.125 79.375 C-22.25660809 79.13765611 -27.03427561 76.3837025 -33 71 C-32.6875 68.625 -32.6875 68.625 -32 66 C-29 64 -29 64 -26.5625 64.1875 C-23.82655841 65.05499368 -22.25029778 66.25783398 -20 68 C-13.95325756 69.90478779 -6.67330484 69.90583906 -1 67 C1.79132802 62.81300797 1.19011811 57.84801175 1 53 C-0.051875 53.66 -1.10375 54.32 -2.1875 55 C-7.93936342 57.85039057 -13.72300025 57.90902868 -20 57 C-26.59445258 54.45806251 -30.52278416 49.89971999 -33.6875 43.6875 C-37.41631245 33.21131265 -37.62096393 18.88947251 -32.9296875 8.66796875 C-25.34864776 -4.18165521 -12.93738369 -5.64540379 0 0 Z " fill="#EB7207" transform="translate(1063,99)"/>
<path d="M0 0 C3.5 0.125 3.5 0.125 4.5 1.125 C4.60035816 3.64502451 4.63617712 6.137662 4.62939453 8.65820312 C4.63114685 9.44678207 4.63289917 10.23536102 4.63470459 11.0478363 C4.63912358 13.6673296 4.63618496 16.28675596 4.6328125 18.90625 C4.63348553 20.7184653 4.63445554 22.53068052 4.63571167 24.34289551 C4.63718871 28.14608619 4.6350339 31.94925344 4.63037109 35.75244141 C4.6246738 40.63878495 4.62795278 45.52507357 4.63394356 50.4114151 C4.63754901 54.15505389 4.63641066 57.89867955 4.63381577 61.64231873 C4.63314645 63.44453437 4.63397507 65.24675118 4.63629532 67.04896545 C4.63882159 69.56327491 4.63498162 72.07749417 4.62939453 74.59179688 C4.63141876 75.34404037 4.63344299 76.09628387 4.63552856 76.87132263 C4.6142626 82.0107374 4.6142626 82.0107374 3.5 83.125 C1.16702567 83.16592937 -1.16705225 83.16741723 -3.5 83.125 C-3.83 81.805 -4.16 80.485 -4.5 79.125 C-5.07105469 79.4859375 -5.64210938 79.846875 -6.23046875 80.21875 C-13.31697129 84.27461791 -19.40435371 85.24164087 -27.5 84.125 C-34.31562246 82.09435496 -37.74287854 78.24877148 -41.1875 72.125 C-43.85143402 66.03600795 -43.74676182 59.98064049 -43.8125 53.4375 C-43.84150391 52.49455078 -43.87050781 51.55160156 -43.90039062 50.58007812 C-43.97272009 42.4847417 -41.94941244 36.14903472 -37.75 29.25 C-32.65056337 24.43386541 -28.02606986 22.861102 -21 22.625 C-15.15860299 22.79480805 -9.81768456 23.80731544 -5.5 28.125 C-5.46241577 26.90598999 -5.46241577 26.90598999 -5.42407227 25.66235352 C-5.30850882 22.00389248 -5.18560416 18.34571472 -5.0625 14.6875 C-5.02318359 13.40810547 -4.98386719 12.12871094 -4.94335938 10.81054688 C-4.88051758 8.98813477 -4.88051758 8.98813477 -4.81640625 7.12890625 C-4.77974854 6.00299072 -4.74309082 4.8770752 -4.70532227 3.71704102 C-4.39087712 -0.25259524 -4.13231832 0.1475828 0 0 Z " fill="#EB7004" transform="translate(1583.5,72.875)"/>
<path d="M0 0 C3.5 0.125 3.5 0.125 4.5 1.125 C4.65825258 3.12282126 4.75119171 5.12588834 4.81640625 7.12890625 C4.87924805 8.95131836 4.87924805 8.95131836 4.94335938 10.81054688 C4.98267578 12.08994141 5.02199219 13.36933594 5.0625 14.6875 C5.10568359 15.97076172 5.14886719 17.25402344 5.19335938 18.57617188 C5.299848 21.75899853 5.40185962 24.94190674 5.5 28.125 C6.263125 27.485625 7.02625 26.84625 7.8125 26.1875 C13.15678953 22.0860685 19.02991697 22.67340791 25.5 23.125 C31.0550478 24.27776319 34.94593944 26.6824243 38.5 31.125 C44.86599257 41.92137929 45.15138679 54.78250196 42.74609375 66.93359375 C40.62613117 73.59277031 38.19542551 78.6790025 32.125 82.4375 C26.31865258 85.12238997 19.73939727 84.92844907 13.5 84.125 C10.22320421 82.70768712 7.46954068 81.10469378 4.5 79.125 C4.17 80.445 3.84 81.765 3.5 83.125 C1.16705225 83.16741723 -1.16702567 83.16592937 -3.5 83.125 C-5.22880189 81.39619811 -4.62599234 79.17597384 -4.63552856 76.87132263 C-4.63350433 76.11907913 -4.6314801 75.36683563 -4.62939453 74.59179688 C-4.63114685 73.80321793 -4.63289917 73.01463898 -4.63470459 72.2021637 C-4.63912358 69.5826704 -4.63618496 66.96324404 -4.6328125 64.34375 C-4.63348553 62.5315347 -4.63445554 60.71931948 -4.63571167 58.90710449 C-4.63718871 55.10391381 -4.6350339 51.30074656 -4.63037109 47.49755859 C-4.6246738 42.61121505 -4.62795278 37.72492643 -4.63394356 32.8385849 C-4.63754901 29.09494611 -4.63641066 25.35132045 -4.63381577 21.60768127 C-4.63314645 19.80546563 -4.63397507 18.00324882 -4.63629532 16.20103455 C-4.63882159 13.68672509 -4.63498162 11.17250583 -4.62939453 8.65820312 C-4.63141876 7.90595963 -4.63344299 7.15371613 -4.63552856 6.37867737 C-4.60981599 0.16463629 -4.60981599 0.16463629 0 0 Z " fill="#EB7004" transform="translate(902.5,72.875)"/>
<path d="M0 0 C5.68839239 3.26504474 9.08861126 7.63546776 11.6953125 13.5859375 C14.30848902 23.87384866 14.32513102 38.21971314 9.88671875 47.9375 C6.5022382 53.20890333 1.8090454 56.61184422 -4.14453125 58.5234375 C-12.05329778 60.16716751 -19.15975098 59.70304727 -26.2421875 55.68359375 C-32.12905913 51.16892885 -34.82841636 45.0959139 -36.4375 38 C-36.7540869 34.72438084 -36.81869692 31.47713256 -36.8125 28.1875 C-36.81088867 27.3018335 -36.80927734 26.41616699 -36.80761719 25.50366211 C-36.68545647 18.998604 -35.87250704 13.64494164 -32.4375 8 C-31.90125 7.071875 -31.365 6.14375 -30.8125 5.1875 C-22.16144311 -2.78057871 -10.84637187 -4.79523809 0 0 Z " fill="#EB7106" transform="translate(1442.4375,98)"/>
<path d="M0 0 C6.02976803 3.88585051 9.08101485 9.20292235 11 16 C11.30437498 18.5964509 11.53128499 21.20294098 11.6875 23.8125 C11.73455078 24.49248047 11.78160156 25.17246094 11.83007812 25.87304688 C11.93387964 27.57981605 11.97259416 29.2902969 12 31 C11 32 11 32 7.48999023 32.11352539 C5.92951578 32.11336626 4.36903607 32.10767142 2.80859375 32.09765625 C1.98875504 32.0962413 1.16891632 32.09482635 0.32423401 32.09336853 C-2.30471382 32.08775289 -4.93357773 32.07519779 -7.5625 32.0625 C-9.34049357 32.05748701 -11.11848846 32.05292376 -12.89648438 32.04882812 C-17.26435545 32.03777839 -21.63216348 32.02050331 -26 32 C-25.7215625 33.26972656 -25.443125 34.53945312 -25.15625 35.84765625 C-24.99962891 36.56187744 -24.84300781 37.27609863 -24.68164062 38.01196289 C-23.40527153 41.7345537 -20.36057539 43.31971231 -17 45 C-11.11577835 45.74468365 -6.85237772 44.91525387 -1.7265625 41.97265625 C0 41 0 41 3 40 C4.82421875 41.21484375 4.82421875 41.21484375 6.6875 42.9375 C7.31011719 43.50339844 7.93273437 44.06929687 8.57421875 44.65234375 C9.04472656 45.09707031 9.51523437 45.54179687 10 46 C9.17339853 50.25744196 7.59212063 51.52542801 4 54 C-4.20117533 58.61316112 -12.7854044 58.84026538 -22 58 C-27.9254847 56.1785181 -32.78965131 53.43289778 -36 48 C-41.88207698 36.74548449 -42.64997121 24.17826932 -39 12 C-35.86770671 5.34387675 -31.61638166 1.16006288 -25 -2 C-17.02106267 -4.65964578 -7.51675263 -3.67170516 0 0 Z " fill="#042E64" transform="translate(368,99)"/>
<path d="M0 0 C3.47766571 3.17738534 5.63825771 6.59950941 6.29525757 11.25938416 C6.40668222 14.16799842 6.39519933 17.05079155 6.3359375 19.9609375 C6.33027771 21.01644302 6.32461792 22.07194855 6.31878662 23.15943909 C6.29649845 26.51171314 6.24631465 29.86289587 6.1953125 33.21484375 C6.1752378 35.49542721 6.15698873 37.77602752 6.140625 40.05664062 C6.09665818 45.63062516 6.02768171 51.20379978 5.9453125 56.77734375 C1.9853125 56.77734375 -1.9746875 56.77734375 -6.0546875 56.77734375 C-6.5496875 54.79734375 -6.5496875 54.79734375 -7.0546875 52.77734375 C-7.9828125 53.41671875 -8.9109375 54.05609375 -9.8671875 54.71484375 C-14.40175411 57.64897508 -17.54660132 57.95934904 -22.8671875 58.02734375 C-24.67123047 58.06601563 -24.67123047 58.06601563 -26.51171875 58.10546875 C-31.21752659 57.66964972 -34.44019683 56.26660139 -37.91796875 53.05859375 C-38.39621094 52.47078125 -38.87445312 51.88296875 -39.3671875 51.27734375 C-39.85832031 50.68953125 -40.34945312 50.10171875 -40.85546875 49.49609375 C-43.74852155 45.34969885 -43.61897636 40.62082313 -43.0546875 35.77734375 C-41.01496688 29.45864401 -37.67641664 25.63715061 -31.7421875 22.58984375 C-23.70712891 20.16063999 -15.36191447 20.67233667 -7.0546875 20.77734375 C-7.1165625 19.51921875 -7.1784375 18.26109375 -7.2421875 16.96484375 C-7.29439453 15.90330078 -7.29439453 15.90330078 -7.34765625 14.8203125 C-7.92600502 12.57589712 -7.92600502 12.57589712 -10.1640625 11.03515625 C-13.67583117 9.50706232 -16.29664078 9.41172385 -20.1171875 9.46484375 C-21.92896484 9.47064453 -21.92896484 9.47064453 -23.77734375 9.4765625 C-26.85883975 9.75936964 -28.42489776 10.28990612 -31.0546875 11.77734375 C-33.6171875 11.71484375 -33.6171875 11.71484375 -36.0546875 10.77734375 C-38.65657006 7.45770049 -39.0546875 6.08418334 -39.0546875 1.77734375 C-37.82961852 1.12377097 -36.59939234 0.47986142 -35.3671875 -0.16015625 C-34.68269531 -0.51980469 -33.99820313 -0.87945312 -33.29296875 -1.25 C-23.61417461 -5.45596813 -9.18826295 -4.89052706 0 0 Z " fill="#042F65" transform="translate(570.0546875,99.22265625)"/>
<path d="M0 0 C1.093125 0.00257812 2.18625 0.00515625 3.3125 0.0078125 C4.405625 0.00523438 5.49875 0.00265625 6.625 0 C9.3125 0.1328125 9.3125 0.1328125 10.3125 1.1328125 C10.47075258 3.13063376 10.56369171 5.13370084 10.62890625 7.13671875 C10.69174805 8.95913086 10.69174805 8.95913086 10.75585938 10.81835938 C10.79517578 12.09775391 10.83449219 13.37714844 10.875 14.6953125 C10.91818359 15.97857422 10.96136719 17.26183594 11.00585938 18.58398438 C11.112348 21.76681103 11.21435962 24.94971924 11.3125 28.1328125 C12.07433594 27.60119507 12.07433594 27.60119507 12.8515625 27.05883789 C19.15834158 22.85358035 23.75216552 22.03534459 31.3125 23.1328125 C36.67326978 24.76889159 40.30155013 27.33759604 43.3125 32.1328125 C46.3540303 37.96569178 46.72995468 42.66650607 46.640625 49.1875 C46.63875183 50.12965363 46.63687866 51.07180725 46.63494873 52.04251099 C46.62825829 54.02089003 46.61440417 55.99925652 46.59375 57.97753906 C46.56238459 61.01900398 46.5527544 64.05995131 46.546875 67.1015625 C46.53771278 69.02604805 46.52733952 70.9505283 46.515625 72.875 C46.50925018 74.24517776 46.50925018 74.24517776 46.50274658 75.64303589 C46.42970545 82.01560705 46.42970545 82.01560705 45.3125 83.1328125 C43.31450428 83.23155066 41.31292842 83.26253049 39.3125 83.2578125 C38.219375 83.26039063 37.12625 83.26296875 36 83.265625 C33.3125 83.1328125 33.3125 83.1328125 32.3125 82.1328125 C32.18926261 79.30865411 32.12635123 76.5051924 32.1015625 73.6796875 C32.07348375 71.92837623 32.04481922 70.17707428 32.015625 68.42578125 C31.97441567 65.65641641 31.93754206 62.8872235 31.91113281 60.11767578 C31.88347368 57.45047721 31.83758962 54.78407722 31.7890625 52.1171875 C31.78580963 51.29305359 31.78255676 50.46891968 31.77920532 49.61981201 C31.6801977 44.97493992 31.28476025 41.92535425 28.3125 38.1328125 C25.09727863 35.80454875 22.20419575 35.73570069 18.3125 36.1328125 C15.6623877 37.337409 13.90281347 38.31153485 12.19555664 40.68676758 C10.84754699 44.42072078 10.97358817 48.07769977 10.93359375 52.01953125 C10.90810204 53.30595268 10.90810204 53.30595268 10.88209534 54.61836243 C10.829041 57.35227142 10.78868509 60.08616535 10.75 62.8203125 C10.70611224 65.56509617 10.65948326 68.30976081 10.60719299 71.05439758 C10.57516244 72.76149041 10.54829544 74.46868908 10.52696228 76.1759491 C10.42427018 82.02104232 10.42427018 82.02104232 9.3125 83.1328125 C7.31450428 83.23155066 5.31292842 83.26253049 3.3125 83.2578125 C2.219375 83.26039063 1.12625 83.26296875 0 83.265625 C-2.6875 83.1328125 -2.6875 83.1328125 -3.6875 82.1328125 C-3.78785816 79.61278799 -3.82367712 77.1201505 -3.81689453 74.59960938 C-3.81864685 73.81103043 -3.82039917 73.02245148 -3.82220459 72.2099762 C-3.82662358 69.5904829 -3.82368496 66.97105654 -3.8203125 64.3515625 C-3.82098553 62.5393472 -3.82195554 60.72713198 -3.82321167 58.91491699 C-3.82468871 55.11172631 -3.8225339 51.30855906 -3.81787109 47.50537109 C-3.8121738 42.61902755 -3.81545278 37.73273893 -3.82144356 32.8463974 C-3.82504901 29.10275861 -3.82391066 25.35913295 -3.82131577 21.61549377 C-3.82064645 19.81327813 -3.82147507 18.01106132 -3.82379532 16.20884705 C-3.82632159 13.69453759 -3.82248162 11.18031833 -3.81689453 8.66601562 C-3.81891876 7.91377213 -3.82094299 7.16152863 -3.82302856 6.38648987 C-3.79737893 0.18766117 -3.79737893 0.18766117 0 0 Z " fill="#042F64" transform="translate(270.6875,72.8671875)"/>
<path d="M0 0 C3.56859509 4.37152898 5.12387874 7.94896987 5.12939453 13.54736328 C5.13254669 14.46486359 5.13569885 15.38236389 5.13894653 16.32766724 C5.1369223 17.31524017 5.13489807 18.30281311 5.1328125 19.3203125 C5.13376923 20.33471405 5.13472595 21.3491156 5.13571167 22.39425659 C5.13639217 24.5377407 5.13454691 26.68122688 5.13037109 28.82470703 C5.12500999 32.11886172 5.13032616 35.41288075 5.13671875 38.70703125 C5.13605816 40.78645864 5.1347774 42.86588594 5.1328125 44.9453125 C5.13483673 45.9369339 5.13686096 46.9285553 5.13894653 47.95022583 C5.13421829 49.31701981 5.13421829 49.31701981 5.12939453 50.71142578 C5.12859894 51.51734161 5.12780334 52.32325745 5.12698364 53.15359497 C5 55 5 55 4 56 C0.5625 56.25 0.5625 56.25 -3 56 C-3.66 55.01 -4.32 54.02 -5 53 C-5.48726562 53.28875 -5.97453125 53.5775 -6.4765625 53.875 C-14.05093304 57.84121585 -22.19214711 58.45196322 -30.5 56.375 C-34.936345 54.49291424 -37.83003045 51.61784319 -40.15234375 47.4140625 C-41.82626869 42.64684769 -41.75347642 37.9534098 -41 33 C-38.46898749 27.75049257 -34.85621049 24.26643295 -29.515625 21.8984375 C-24.67993859 20.66265097 -20.09216582 20.7875025 -15.125 20.875 C-14.15046875 20.88402344 -13.1759375 20.89304687 -12.171875 20.90234375 C-9.78099272 20.92578377 -7.39062739 20.95859558 -5 21 C-5.11429397 19.22844346 -5.24183037 17.45773771 -5.375 15.6875 C-5.47941406 14.20830078 -5.47941406 14.20830078 -5.5859375 12.69921875 C-5.83865472 9.78471567 -5.83865472 9.78471567 -8 7 C-13.18335267 4.98294874 -19.55813824 5.58609281 -25 6 C-28.3850877 7.43999707 -28.3850877 7.43999707 -31 9 C-33.875 8.6875 -33.875 8.6875 -36 8 C-36.33 6.02 -36.66 4.04 -37 2 C-35.77730619 1.17779151 -34.54648216 0.36766766 -33.3125 -0.4375 C-32.28576172 -1.11619141 -32.28576172 -1.11619141 -31.23828125 -1.80859375 C-22.66441722 -6.37234337 -7.85982451 -5.77564633 0 0 Z " fill="#EB7208" transform="translate(848,100)"/>
<path d="M0 0 C6.12348214 4.61048169 9.17904601 9.89523007 10.6875 17.4375 C11.0323399 21.3686749 11.2005462 25.05592476 11 29 C9 31 9 31 5.37646484 31.22705078 C3.82125311 31.22673357 2.26601949 31.21540299 0.7109375 31.1953125 C-0.51669815 31.19106766 -0.51669815 31.19106766 -1.76913452 31.18673706 C-4.38790393 31.17552532 -7.00633364 31.15041929 -9.625 31.125 C-11.39843257 31.11497147 -13.17187049 31.1058454 -14.9453125 31.09765625 C-19.29700626 31.07558278 -23.6484455 31.04104644 -28 31 C-27.71345344 32.60556441 -27.41733454 34.20942241 -27.1171875 35.8125 C-26.87137939 37.15248047 -26.87137939 37.15248047 -26.62060547 38.51953125 C-25.61954395 42.52062684 -23.67695323 44.99382806 -20.1640625 47.1015625 C-15.58307134 49.00341803 -10.33402229 48.79631349 -5.67578125 47.20703125 C-2.22408831 45.54179676 0.37008675 43.80684931 3 41 C6 42.5 6 42.5 9 44 C9.375 46.1875 9.375 46.1875 9 49 C3.85419047 54.55205765 -2.78076221 57.54901259 -10.2890625 58.3515625 C-18.90298462 58.56938582 -24.98499427 57.43762534 -31.6484375 51.59375 C-37.56088431 44.62184741 -38.20463301 36.00594966 -38.25 27.3125 C-38.270625 26.34376953 -38.29125 25.37503906 -38.3125 24.37695312 C-38.35885776 15.80656204 -36.77256267 8.97170734 -30.78515625 2.54296875 C-22.2917481 -4.79816084 -9.75130284 -5.20682774 0 0 Z " fill="#EB730A" transform="translate(1226,99)"/>
<path d="M0 0 C3.3125 -0.3125 3.3125 -0.3125 7 0 C9.45160016 3.30103201 10.72204497 6.73995333 11.9375 10.640625 C12.27523438 11.71183594 12.61296875 12.78304687 12.9609375 13.88671875 C13.30382813 14.99660156 13.64671875 16.10648438 14 17.25 C14.68704194 19.4428519 15.37453435 21.63556272 16.0625 23.828125 C16.55169922 25.39530273 16.55169922 25.39530273 17.05078125 26.99414062 C18.31979923 31.01269757 19.65222998 35.00723132 21 39 C23.30849189 35.53726216 24.48115759 31.99732704 25.78515625 28.0859375 C26.04630722 27.31569244 26.30745819 26.54544739 26.57652283 25.75186157 C27.40933911 23.29428973 28.2363899 20.8348335 29.0625 18.375 C29.89268114 15.90820346 30.72413632 13.44186706 31.55918884 10.97671509 C32.07856882 9.44302993 32.59505167 7.90836013 33.1084137 6.37265015 C34.88772122 1.11227878 34.88772122 1.11227878 36 0 C38.33297433 -0.04092937 40.66705225 -0.04241723 43 0 C46.76975269 7.94372128 49.47868405 16.15482787 52.1875 24.5 C52.8614974 26.5698429 53.53687573 28.63919683 54.21589661 30.70739746 C54.8246334 32.56229102 55.42844029 34.41880033 56.03198242 36.27539062 C56.73814743 38.88133887 56.73814743 38.88133887 58 40 C58.35304199 38.85934082 58.70608398 37.71868164 59.06982422 36.54345703 C60.3792827 32.31850039 61.69693083 28.09613581 63.01708984 23.87451172 C63.58769455 22.04578372 64.15606532 20.21635714 64.72216797 18.38623047 C65.53549558 15.75822793 66.35678125 13.13282904 67.1796875 10.5078125 C67.55793167 9.27649094 67.55793167 9.27649094 67.94381714 8.02029419 C69.77225659 2.22774341 69.77225659 2.22774341 72 0 C75.625 -0.125 75.625 -0.125 79 0 C80.06886236 3.9504532 79.88430781 6.3408748 78.5847168 10.20166016 C78.25074387 11.21265778 77.91677094 12.2236554 77.57267761 13.26528931 C77.01656548 14.88580704 77.01656548 14.88580704 76.44921875 16.5390625 C75.8882122 18.2157753 75.8882122 18.2157753 75.31587219 19.92636108 C74.52357849 22.28678695 73.72551486 24.64528282 72.92211914 27.00195312 C71.69114336 30.6143084 70.47787453 34.2322327 69.26757812 37.8515625 C68.49582171 40.14357625 67.72306887 42.43525479 66.94921875 44.7265625 C66.58455002 45.81095612 66.21988129 46.89534973 65.84416199 48.01260376 C65.32901787 49.51964371 65.32901787 49.51964371 64.8034668 51.05712891 C64.50288864 51.94139557 64.20231049 52.82566223 63.8926239 53.73672485 C63 56 63 56 61 59 C57.375 59.1875 57.375 59.1875 54 59 C50.46332171 50.60851791 47.5944783 42.01736363 44.75 33.375 C44.28674117 31.97516678 43.82320143 30.5754265 43.359375 29.17578125 C42.23634841 25.78491754 41.11710867 22.39281863 40 19 C37.65035564 22.52446654 36.5075631 26.14170652 35.21484375 30.1328125 C34.95369278 30.9252536 34.69254181 31.7176947 34.42347717 32.53414917 C33.59051662 35.06304363 32.76352791 37.59383336 31.9375 40.125 C31.1073691 42.66312343 30.27592129 45.20078447 29.44081116 47.73727417 C28.92136073 49.31547942 28.40487704 50.89466469 27.8915863 52.47488403 C26.11225584 57.88774416 26.11225584 57.88774416 25 59 C21.5625 59.1875 21.5625 59.1875 18 59 C15.8704056 56.8704056 15.4369603 55.77532108 14.53540039 52.96850586 C14.264944 52.13681381 13.99448761 51.30512177 13.71583557 50.44822693 C13.4293364 49.54621048 13.14283722 48.64419403 12.84765625 47.71484375 C12.39645668 46.31946129 12.39645668 46.31946129 11.93614197 44.89588928 C10.97252514 41.91157258 10.01735325 38.92463088 9.0625 35.9375 C8.42309426 33.95098889 7.7831268 31.96465849 7.14257812 29.97851562 C6.23407945 27.16111277 5.32637412 24.34348479 4.42311096 21.5243988 C4.14950241 20.67064163 3.87589386 19.81688446 3.59399414 18.93725586 C3.33167999 18.11579071 3.06936584 17.29432556 2.79910278 16.44796753 C2.2557201 14.7833717 1.69451925 13.12450969 1.11764526 11.47122192 C0.83962067 10.6732016 0.56159607 9.87518127 0.27514648 9.05297852 C0.0227269 8.3453688 -0.22969269 7.63775909 -0.48976135 6.90870667 C-1.16834754 4.37024355 -0.87178604 2.45685158 0 0 Z " fill="#EB7106" transform="translate(1319,97)"/>
<path d="M0 0 C5.5309419 3.40365656 9.42179038 7.2666832 11.328125 13.55810547 C12.43807845 18.22615468 12.52181813 22.71680669 12.48046875 27.49609375 C12.48001053 28.37024429 12.47955231 29.24439484 12.4790802 30.14503479 C12.47607921 31.97617974 12.46825825 33.80732263 12.45581055 35.63842773 C12.437394 38.45370402 12.43530226 41.26865374 12.43554688 44.08398438 C12.43063689 45.86719037 12.42481085 47.65039412 12.41796875 49.43359375 C12.41685593 50.2782872 12.4157431 51.12298065 12.41459656 51.99327087 C12.36610031 57.88389969 12.36610031 57.88389969 11.25 59 C9.06360547 59.07258946 6.87499611 59.08373783 4.6875 59.0625 C2.89119141 59.04896484 2.89119141 59.04896484 1.05859375 59.03515625 C0.13175781 59.02355469 -0.79507813 59.01195312 -1.75 59 C-1.76458252 57.84999512 -1.77916504 56.69999023 -1.79418945 55.51513672 C-1.85233762 51.23211195 -1.92956924 46.94960384 -2.01245117 42.66699219 C-2.04562296 40.81649181 -2.07367887 38.96589214 -2.09643555 37.11523438 C-2.1301245 34.44878997 -2.1824466 31.7832491 -2.23828125 29.1171875 C-2.24467117 28.29507782 -2.2510611 27.47296814 -2.25764465 26.62594604 C-2.38244537 21.70585779 -3.05410811 18.27419747 -5.75 14 C-8.59391689 11.94282241 -10.80144827 11.73772201 -14.25 12.0625 C-15.0028125 12.11535156 -15.755625 12.16820313 -16.53125 12.22265625 C-19.87522973 13.39422661 -20.87194364 15.00395513 -22.75 18 C-23.33711154 21.06755076 -23.33124892 24.08662703 -23.32421875 27.203125 C-23.33838333 28.08152039 -23.35254791 28.95991577 -23.36714172 29.8649292 C-23.40896174 32.66007869 -23.42427323 35.45458194 -23.4375 38.25 C-23.46652472 41.05940112 -23.50099724 43.86863764 -23.53999329 46.67791748 C-23.56254234 48.42397614 -23.57832407 50.1701373 -23.58683777 51.9163208 C-23.6403982 57.8903982 -23.6403982 57.8903982 -24.75 59 C-26.74799572 59.09873816 -28.74957158 59.12971799 -30.75 59.125 C-31.843125 59.12757813 -32.93625 59.13015625 -34.0625 59.1328125 C-36.75 59 -36.75 59 -37.75 58 C-37.84893778 56.22553991 -37.87799092 54.44713749 -37.87939453 52.66992188 C-37.88254669 51.53204224 -37.88569885 50.3941626 -37.88894653 49.22180176 C-37.8869223 47.98329468 -37.88489807 46.7447876 -37.8828125 45.46875 C-37.88376923 44.20736206 -37.88472595 42.94597412 -37.88571167 41.6463623 C-37.88639375 38.97302862 -37.88503529 36.29978563 -37.88037109 33.62646484 C-37.87467381 30.19293309 -37.87795301 26.7594795 -37.88394356 23.32595062 C-37.88841762 20.06104757 -37.88528883 16.79615407 -37.8828125 13.53125 C-37.88483673 12.29274292 -37.88686096 11.05423584 -37.88894653 9.77819824 C-37.88579437 8.6403186 -37.88264221 7.50243896 -37.87939453 6.33007812 C-37.87859894 5.32271606 -37.87780334 4.315354 -37.87698364 3.27746582 C-37.75 1 -37.75 1 -36.75 0 C-34.73035801 -0.07244053 -32.70832876 -0.08377188 -30.6875 -0.0625 C-29.03041016 -0.04896484 -29.03041016 -0.04896484 -27.33984375 -0.03515625 C-26.48519531 -0.02355469 -25.63054688 -0.01195313 -24.75 0 C-24.09 1.32 -23.43 2.64 -22.75 4 C-21.986875 3.360625 -21.22375 2.72125 -20.4375 2.0625 C-14.53615692 -2.46643771 -6.91796074 -1.84478953 0 0 Z " fill="#052F65" transform="translate(693.75,97)"/>
<path d="M0 0 C0.78375 0.66 1.5675 1.32 2.375 2 C2.375 2.99 2.375 3.98 2.375 5 C1.715 5 1.055 5 0.375 5 C-0.058125 5.928125 -0.058125 5.928125 -0.5 6.875 C-1.625 9 -1.625 9 -3.625 11 C-6.38845785 10.69294913 -8.67311166 9.98052623 -11.25 8.9375 C-15.99789035 7.61864157 -20.72546782 7.47697302 -25.625 8 C-26.615 8.66 -27.605 9.32 -28.625 10 C-28.295 11.98 -27.965 13.96 -27.625 16 C-23.30700316 17.58807787 -19.31636669 18.376666 -14.75 18.875 C-8.39236195 19.75353437 -2.78330936 20.61609712 1.7421875 25.46484375 C5.00374835 30.24471741 5.24339128 35.39492899 4.375 41 C2.15908231 47.90844927 -1.54028156 51.33899777 -7.875 54.75 C-16.92900279 57.86554088 -28.97802999 57.33355493 -37.59765625 53.22265625 C-40.59646557 51.41412577 -43.08246697 49.4087155 -45.625 47 C-44.09791037 43.56404834 -42.02572955 40.88087546 -39.625 38 C-36.27652025 38.41855997 -33.97013362 39.35662539 -31.125 41.0625 C-25.67964617 43.90987967 -19.61502863 43.87948833 -13.625 43 C-11.27680598 41.59609408 -11.27680598 41.59609408 -9.625 40 C-10.12 37.03 -10.12 37.03 -10.625 34 C-14.61516651 32.33743062 -18.1098001 31.87437732 -22.375 31.6875 C-29.20313042 31.18643073 -35.12397145 29.4012583 -40.1328125 24.53515625 C-43.72192569 19.4024734 -43.43314939 12.98197179 -42.625 7 C-40.31075705 1.90866552 -36.47533466 -1.3301886 -31.625 -4 C-21.62466297 -7.44167443 -8.93056035 -5.3998737 0 0 Z " fill="#052F65" transform="translate(432.625,101)"/>
<path d="M0 0 C5.03908456 2.86536181 7.40768414 6.38265813 9.1875 11.8125 C9.5559532 16.34431062 9.51687942 20.87744795 9.50317383 25.42211914 C9.50002435 27.60809702 9.52346042 29.79270577 9.54882812 31.97851562 C9.62466868 48.1719212 9.62466868 48.1719212 4.73535156 53.35058594 C-0.26117232 57.69262276 -3.61492918 58.16555966 -10.05078125 58.08984375 C-13.94669036 57.6985997 -15.95872175 56.45746521 -18.8125 53.8125 C-24.6815779 46.19856111 -23.99524451 39.43148657 -24 30.125 C-24.01224609 28.88298828 -24.02449219 27.64097656 -24.03710938 26.36132812 C-24.06251453 10.38148856 -24.06251453 10.38148856 -20 3.9375 C-13.81012964 -2.07551692 -8.06948611 -2.51344649 0 0 Z " fill="#FCFDFD" transform="translate(129.8125,86.1875)"/>
<path d="M0 0 C3 0.1875 3 0.1875 5 1.1875 C5.33 9.7675 5.66 18.3475 6 27.1875 C8.64 25.8675 11.28 24.5475 14 23.1875 C20.54546873 22.07019553 27.1932018 22.89389464 33 26.1875 C38.26378443 30.39852754 40.62252751 35.68197489 42 42.1875 C42.0914154 43.51939204 42.13775718 44.85493697 42.14526367 46.18994141 C42.15164352 46.96399323 42.15802338 47.73804504 42.16459656 48.53555298 C42.16570938 49.36171112 42.1668222 50.18786926 42.16796875 51.0390625 C42.17296135 52.32192642 42.17296135 52.32192642 42.17805481 53.63070679 C42.18310865 55.43446313 42.18546361 57.23822878 42.18530273 59.04199219 C42.18749754 61.8093993 42.20569203 64.57641295 42.22460938 67.34375 C42.22754189 69.0963528 42.22952763 70.8489575 42.23046875 72.6015625 C42.23765427 73.4317691 42.24483978 74.26197571 42.25224304 75.11734009 C42.22883483 80.95866517 42.22883483 80.95866517 40 83.1875 C36.4375 83.375 36.4375 83.375 33 83.1875 C30.87161914 81.05911914 31.81367437 76.24968776 31.7890625 73.296875 C31.76098472 71.45441834 31.7323202 69.61197054 31.703125 67.76953125 C31.66190684 64.85530937 31.62503398 61.94125134 31.59863281 59.02685547 C31.57098573 56.22067703 31.52510211 53.4152595 31.4765625 50.609375 C31.47330963 49.74149353 31.47005676 48.87361206 31.46670532 47.97943115 C31.37042413 43.22975428 31.06097039 40.05310562 28 36.1875 C24.30635737 33.03704011 20.91522139 32.66765475 16.21875 32.83203125 C12.73276986 33.39052455 10.61799384 34.88877371 8 37.1875 C6.2928152 39.99686455 5.74404582 42.12078777 5.69702148 45.3894043 C5.67205849 46.61538582 5.67205849 46.61538582 5.64659119 47.86613464 C5.63817703 48.7391774 5.62976288 49.61222015 5.62109375 50.51171875 C5.60409927 51.41372513 5.5871048 52.31573151 5.56959534 53.24507141 C5.51652297 56.1216435 5.47617763 58.99820115 5.4375 61.875 C5.39361649 64.76243892 5.34698797 67.64976447 5.29469299 70.5370636 C5.26265576 72.33319077 5.23579091 74.12941871 5.21446228 75.92570496 C5.11176825 82.07573175 5.11176825 82.07573175 4 83.1875 C2.1875 83.3203125 2.1875 83.3203125 0 83.3125 C-0.721875 83.31507813 -1.44375 83.31765625 -2.1875 83.3203125 C-4 83.1875 -4 83.1875 -5 82.1875 C-5.10565282 79.70335052 -5.14678274 77.24686167 -5.14526367 74.76196289 C-5.14862228 73.9847438 -5.1519809 73.20752472 -5.15544128 72.40675354 C-5.16497961 69.82453841 -5.16689583 67.24238792 -5.16796875 64.66015625 C-5.17117932 62.87275668 -5.17454324 61.08535738 -5.17805481 59.29795837 C-5.18405329 55.54604482 -5.18589397 51.79415434 -5.18530273 48.04223633 C-5.18520107 43.22545177 -5.19885452 38.40881448 -5.21607494 33.59206486 C-5.22717248 29.89899511 -5.22922264 26.20596123 -5.22869301 22.51287651 C-5.22987648 20.73660207 -5.23431865 18.9603268 -5.24202538 17.18406868 C-5.25178017 14.70341694 -5.24896526 12.22308815 -5.24291992 9.74243164 C-5.24853943 9.00313416 -5.25415894 8.26383667 -5.25994873 7.50213623 C-5.21531829 0.32595739 -5.21531829 0.32595739 0 0 Z " fill="#EB740C" transform="translate(1097,72.8125)"/>
<path d="M0 0 C2.20777736 1.53903152 4.03860393 3.13918834 6 5 C5.52613972 9.26474248 3.22968679 11.35752899 0 14 C-2.4375 14.5625 -2.4375 14.5625 -5 14 C-5.94875 13.34 -6.8975 12.68 -7.875 12 C-12.3824117 9.11525651 -15.708056 9.5416112 -20.8125 10.5625 C-23.51614658 12.33918204 -23.81993894 13.91042143 -24.60961914 16.96069336 C-25.28234317 20.47492963 -25.32846067 23.93119443 -25.3125 27.5 C-25.32861328 28.22058594 -25.34472656 28.94117187 -25.36132812 29.68359375 C-25.3659883 34.83774754 -24.38205347 38.4173271 -22 43 C-19.5575492 45.00629887 -17.85636915 45.0162601 -14.6875 45.375 C-11.22373022 45.02275223 -10.11448825 44.67521374 -7.3125 42.9375 C-4 41 -4 41 -1.9375 40.9375 C1.05913459 42.58081574 3.44336791 44.73389429 6 47 C5.61222896 49.39805772 5.31265274 50.69575191 3.546875 52.4140625 C2.95390625 52.81367188 2.3609375 53.21328125 1.75 53.625 C1.16734375 54.02976563 0.5846875 54.43453125 -0.015625 54.8515625 C-7.01445536 58.90206669 -14.150789 58.76558013 -22 58 C-28.58945848 56.15047837 -32.88147043 52.76353818 -36.84375 47.2578125 C-40.1160377 40.86800747 -40.33753448 34.63465358 -40.3125 27.625 C-40.33666992 26.28308594 -40.33666992 26.28308594 -40.36132812 24.9140625 C-40.36696109 17.16310923 -39.15199774 9.22712223 -33.62109375 3.3515625 C-24.09306402 -4.59228879 -11.04881682 -5.67971306 0 0 Z " fill="#052F65" transform="translate(250,99)"/>
<path d="M0 0 C1.50046875 0.00386719 1.50046875 0.00386719 3.03125 0.0078125 C4.0315625 0.00523438 5.031875 0.00265625 6.0625 0 C8.53125 0.1328125 8.53125 0.1328125 9.53125 1.1328125 C9.60450168 3.99548817 9.62363205 6.8335315 9.59375 9.6953125 C9.58923828 10.50162109 9.58472656 11.30792969 9.58007812 12.13867188 C9.56825518 14.13675006 9.55031914 16.13479033 9.53125 18.1328125 C10.16933594 18.12121094 10.80742188 18.10960938 11.46484375 18.09765625 C12.29113281 18.08863281 13.11742187 18.07960938 13.96875 18.0703125 C14.79246094 18.05871094 15.61617187 18.04710938 16.46484375 18.03515625 C18.53125 18.1328125 18.53125 18.1328125 19.53125 19.1328125 C19.6291557 20.63019374 19.66099864 22.13224142 19.65625 23.6328125 C19.66011719 24.85484375 19.66011719 24.85484375 19.6640625 26.1015625 C19.53125 28.1328125 19.53125 28.1328125 18.53125 29.1328125 C15.89125 29.1328125 13.25125 29.1328125 10.53125 29.1328125 C10.86125 40.6828125 11.19125 52.2328125 11.53125 64.1328125 C14.99625 64.6278125 14.99625 64.6278125 18.53125 65.1328125 C19.53125 66.1328125 19.53125 66.1328125 19.6640625 68.6015625 C19.66148437 69.601875 19.65890625 70.6021875 19.65625 71.6328125 C19.66011719 73.13328125 19.66011719 73.13328125 19.6640625 74.6640625 C19.53125 77.1328125 19.53125 77.1328125 18.53125 78.1328125 C10.91273033 78.89174549 5.58255169 77.87017851 -0.78125 73.5703125 C-6.30936796 65.58525322 -4.70332569 53.81761154 -4.59375 44.5078125 C-4.58369608 43.01172477 -4.57457451 41.51563047 -4.56640625 40.01953125 C-4.54459308 36.39048624 -4.51019741 32.76169265 -4.46875 29.1328125 C-6.11875 29.1328125 -7.76875 29.1328125 -9.46875 29.1328125 C-9.49563151 27.48706684 -9.51509123 25.84119837 -9.53125 24.1953125 C-9.54285156 23.27878906 -9.55445313 22.36226562 -9.56640625 21.41796875 C-9.46875 19.1328125 -9.46875 19.1328125 -8.46875 18.1328125 C-6.80257885 18.09217418 -5.13486905 18.0900915 -3.46875 18.1328125 C-3.48035156 16.91722656 -3.49195313 15.70164062 -3.50390625 14.44921875 C-3.51328278 12.86458486 -3.52238313 11.27994932 -3.53125 9.6953125 C-3.53962891 8.89287109 -3.54800781 8.09042969 -3.55664062 7.26367188 C-3.5652643 5.21986029 -3.5210315 3.17597348 -3.46875 1.1328125 C-2.46875 0.1328125 -2.46875 0.1328125 0 0 Z " fill="#083267" transform="translate(595.46875,78.8671875)"/>
<path d="M0 0 C1.7890625 0.11328125 1.7890625 0.11328125 4 1 C5.33934009 3.06613838 6.35280267 4.96569688 7.375 7.1875 C7.70604736 7.8774707 8.03709473 8.56744141 8.37817383 9.27832031 C9.60199369 11.84468275 10.8008304 14.4220281 12 17 C13.05819084 19.25149149 14.11681464 21.50277953 15.17578125 23.75390625 C18.51451728 30.86517578 21.82240956 37.99065251 25.12695312 45.11785889 C26.45781485 47.98697124 27.79146386 50.85478616 29.125 53.72265625 C31.48247793 58.79413265 33.83713246 63.86691097 36.18984985 68.94059753 C37.91076547 72.65177257 39.63229677 76.36266085 41.35449219 80.07324219 C43.49665439 84.68868355 45.63803599 89.30448643 47.77896118 93.92050171 C48.62636162 95.74729146 49.47399288 97.57397415 50.3218689 99.40054321 C51.51865267 101.9789499 52.71450591 104.55778631 53.91015625 107.13671875 C54.2638327 107.89818207 54.61750916 108.65964539 54.98190308 109.44418335 C55.993279 111.62704089 56.99753868 113.81303601 58 116 C58.55831009 117.20434189 58.55831009 117.20434189 59.12789917 118.43301392 C59.49102203 119.22831512 59.8541449 120.02361633 60.22827148 120.84301758 C60.55754135 121.55919754 60.88681122 122.2753775 61.22605896 123.01325989 C62.32235868 125.82750866 62.49488317 128.03070097 62 131 C60.9375 132.875 60.9375 132.875 59 134 C55.5 134.5 55.5 134.5 52 134 C49.58160187 130.65071614 48.07691356 127.00714689 46.54589844 123.18652344 C46.07901611 122.02750519 45.61213379 120.86848694 45.13110352 119.67434692 C44.62380917 118.40271016 44.11656802 117.13105218 43.609375 115.859375 C43.07094746 114.51879438 42.53211938 113.17837458 41.99291992 111.83810425 C40.5413847 108.22700049 39.09501432 104.61385071 37.65000916 101.0001297 C35.22609175 94.94004851 32.79583777 88.88250193 30.36643219 82.82461929 C29.7451188 81.27503031 29.12402135 79.72535474 28.50313568 78.17559433 C24.34418167 67.79542039 20.14509908 57.43280972 15.89717865 47.08872986 C14.2778621 43.14259028 12.66503597 39.19379179 11.05183792 35.24514771 C9.77944262 32.13286503 8.50216171 29.02276026 7.2142334 25.91687012 C5.79269032 22.48305357 4.38690279 19.04318013 2.984375 15.6015625 C2.5618042 14.59318329 2.1392334 13.58480408 1.70385742 12.54586792 C1.32946533 11.61888092 0.95507324 10.69189392 0.56933594 9.73681641 C0.23996033 8.93740631 -0.08941528 8.13799622 -0.42877197 7.31436157 C-1.10873147 4.5594685 -0.73621155 2.71295346 0 0 Z " fill="#EB7207" transform="translate(17,34)"/>
<path d="M0 0 C1.093125 0.00257812 2.18625 0.00515625 3.3125 0.0078125 C4.405625 0.00523438 5.49875 0.00265625 6.625 0 C9.3125 0.1328125 9.3125 0.1328125 10.3125 1.1328125 C10.38575168 3.99548817 10.40488205 6.8335315 10.375 9.6953125 C10.37048828 10.50162109 10.36597656 11.30792969 10.36132812 12.13867188 C10.34950518 14.13675006 10.33156914 16.13479033 10.3125 18.1328125 C13.2825 18.1328125 16.2525 18.1328125 19.3125 18.1328125 C19.3125 21.7628125 19.3125 25.3928125 19.3125 29.1328125 C16.3425 29.1328125 13.3725 29.1328125 10.3125 29.1328125 C10.3125 40.6828125 10.3125 52.2328125 10.3125 64.1328125 C13.2825 64.4628125 16.2525 64.7928125 19.3125 65.1328125 C19.33936553 67.11190648 19.35883375 69.09110221 19.375 71.0703125 C19.38660156 72.17246094 19.39820313 73.27460938 19.41015625 74.41015625 C19.3125 77.1328125 19.3125 77.1328125 18.3125 78.1328125 C11.95082739 78.76654234 6.86304508 78.35212865 1.3125 75.1328125 C-3.67528912 69.88250816 -3.82917376 65.4841294 -3.78515625 58.52734375 C-3.7837413 57.68813889 -3.78232635 56.84893402 -3.78086853 55.98429871 C-3.77527215 53.30460034 -3.76272035 50.6249856 -3.75 47.9453125 C-3.74498453 46.12825642 -3.74042171 44.31119902 -3.73632812 42.49414062 C-3.72530391 38.04033237 -3.70804178 33.58658661 -3.6875 29.1328125 C-4.491875 29.1534375 -5.29625 29.1740625 -6.125 29.1953125 C-8.6875 29.1328125 -8.6875 29.1328125 -9.6875 28.1328125 C-9.7854057 26.63543126 -9.81724864 25.13338358 -9.8125 23.6328125 C-9.81507813 22.818125 -9.81765625 22.0034375 -9.8203125 21.1640625 C-9.6875 19.1328125 -9.6875 19.1328125 -8.6875 18.1328125 C-7.02132885 18.09217418 -5.35361905 18.0900915 -3.6875 18.1328125 C-3.69910156 16.91722656 -3.71070313 15.70164062 -3.72265625 14.44921875 C-3.73203278 12.86458486 -3.74113313 11.27994932 -3.75 9.6953125 C-3.75837891 8.89287109 -3.76675781 8.09042969 -3.77539062 7.26367188 C-3.7840143 5.21986029 -3.7397815 3.17597348 -3.6875 1.1328125 C-2.6875 0.1328125 -2.6875 0.1328125 0 0 Z " fill="#052F65" transform="translate(452.6875,78.8671875)"/>
<path d="M0 0 C2.82413764 1.79343047 3.85195416 3.00898749 4.91796875 6.20703125 C3.703125 8.25 3.703125 8.25 1.98046875 10.39453125 C1.41457031 11.10996094 0.84867188 11.82539062 0.265625 12.5625 C-0.17910156 13.10519531 -0.62382813 13.64789063 -1.08203125 14.20703125 C-1.72140625 14.06265625 -2.36078125 13.91828125 -3.01953125 13.76953125 C-5.56054352 13.30281471 -8.08609232 12.87416635 -10.64453125 12.51953125 C-11.38832031 12.41253906 -12.13210938 12.30554688 -12.8984375 12.1953125 C-15.68542583 12.2102695 -16.84898527 12.50370579 -19.08203125 14.20703125 C-21.89184526 19.58887589 -22.53318664 23.93449928 -22.55859375 29.94921875 C-22.58196304 31.16268478 -22.58196304 31.16268478 -22.60580444 32.40066528 C-22.65299492 34.96111215 -22.68099961 37.52128954 -22.70703125 40.08203125 C-22.74351886 42.66400946 -22.78404697 45.24583456 -22.8296814 47.82766724 C-22.8569267 49.4290363 -22.87826991 51.03051851 -22.89321899 52.63204956 C-22.97130719 58.09630719 -22.97130719 58.09630719 -24.08203125 59.20703125 C-26.08002697 59.30576941 -28.08160283 59.33674924 -30.08203125 59.33203125 C-31.17515625 59.33460938 -32.26828125 59.3371875 -33.39453125 59.33984375 C-36.08203125 59.20703125 -36.08203125 59.20703125 -37.08203125 58.20703125 C-37.18096903 56.43257116 -37.21002217 54.65416874 -37.21142578 52.87695312 C-37.21457794 51.73907349 -37.2177301 50.60119385 -37.22097778 49.42883301 C-37.21895355 48.19032593 -37.21692932 46.95181885 -37.21484375 45.67578125 C-37.21580048 44.41439331 -37.2167572 43.15300537 -37.21774292 41.85339355 C-37.218425 39.18005987 -37.21706654 36.50681688 -37.21240234 33.83349609 C-37.20670506 30.39996434 -37.20998426 26.96651075 -37.21597481 23.53298187 C-37.22044887 20.26807882 -37.21732008 17.00318532 -37.21484375 13.73828125 C-37.21686798 12.49977417 -37.21889221 11.26126709 -37.22097778 9.98522949 C-37.21782562 8.84734985 -37.21467346 7.70947021 -37.21142578 6.53710938 C-37.21063019 5.52974731 -37.20983459 4.52238525 -37.20901489 3.48449707 C-37.08203125 1.20703125 -37.08203125 1.20703125 -36.08203125 0.20703125 C-34.06238926 0.13459072 -32.04036001 0.12325937 -30.01953125 0.14453125 C-28.36244141 0.15806641 -28.36244141 0.15806641 -26.671875 0.171875 C-25.81722656 0.18347656 -24.96257812 0.19507812 -24.08203125 0.20703125 C-23.42203125 1.85703125 -22.76203125 3.50703125 -22.08203125 5.20703125 C-21.50453125 4.58828125 -20.92703125 3.96953125 -20.33203125 3.33203125 C-14.92600146 -1.77366355 -6.96720646 -2.65355143 0 0 Z " fill="#083267" transform="translate(521.08203125,96.79296875)"/>
<path d="M0 0 C-0.44469329 5.03985731 -2.71343362 7.37634988 -6 11 C-10.75 10.125 -10.75 10.125 -13 9 C-17.10168835 8.61304827 -19.31469451 8.58285753 -22.875 10.75 C-26.86499744 14.97470317 -26.18782431 20.11132361 -26.28125 25.66796875 C-26.29965942 26.50338699 -26.31806885 27.33880524 -26.33703613 28.19953918 C-26.41564126 31.76920933 -26.48371166 35.33905993 -26.55224609 38.90893555 C-26.60381913 41.51621265 -26.66110035 44.1233201 -26.71875 46.73046875 C-26.73232544 47.54396286 -26.74590088 48.35745697 -26.7598877 49.19560242 C-26.88712479 54.88712479 -26.88712479 54.88712479 -28 56 C-29.99799572 56.09873816 -31.99957158 56.12971799 -34 56.125 C-35.093125 56.12757813 -36.18625 56.13015625 -37.3125 56.1328125 C-40 56 -40 56 -41 55 C-41.09893778 53.22553991 -41.12799092 51.44713749 -41.12939453 49.66992188 C-41.13254669 48.53204224 -41.13569885 47.3941626 -41.13894653 46.22180176 C-41.1369223 44.98329468 -41.13489807 43.7447876 -41.1328125 42.46875 C-41.13376923 41.20736206 -41.13472595 39.94597412 -41.13571167 38.6463623 C-41.13639375 35.97302862 -41.13503529 33.29978563 -41.13037109 30.62646484 C-41.12467381 27.19293309 -41.12795301 23.7594795 -41.13394356 20.32595062 C-41.13841762 17.06104757 -41.13528883 13.79615407 -41.1328125 10.53125 C-41.13483673 9.29274292 -41.13686096 8.05423584 -41.13894653 6.77819824 C-41.13579437 5.6403186 -41.13264221 4.50243896 -41.12939453 3.33007812 C-41.12859894 2.32271606 -41.12780334 1.315354 -41.12698364 0.27746582 C-41 -2 -41 -2 -40 -3 C-37.98035801 -3.07244053 -35.95832876 -3.08377188 -33.9375 -3.0625 C-32.28041016 -3.04896484 -32.28041016 -3.04896484 -30.58984375 -3.03515625 C-29.73519531 -3.02355469 -28.88054687 -3.01195313 -28 -3 C-27.34 -1.68 -26.68 -0.36 -26 1 C-25.2575 0.360625 -24.515 -0.27875 -23.75 -0.9375 C-16.16979386 -6.62265461 -7.58578328 -4.41354663 0 0 Z " fill="#042E64" transform="translate(208,100)"/>
<path d="M0 0 C4.37406801 2.2282988 7.30228616 4.90347157 10 9 C12.10403206 16.68673047 12.74473284 28.3500259 9.4375 35.8125 C7.07485182 39.4886484 4.16455859 41.69347182 0 43 C-4.79975873 43.80274711 -8.02750092 43.50425878 -12.375 41.25 C-16.20106067 37.97051943 -18.75453355 35.14643365 -19.16113281 29.93457031 C-19.20678197 27.37290948 -19.23527567 24.81203362 -19.25 22.25 C-19.270625 21.36828125 -19.29125 20.4865625 -19.3125 19.578125 C-19.34614867 13.92514925 -18.72497174 9.98391507 -16 5 C-10.82538854 0.20401864 -6.92540727 -0.84085889 0 0 Z " fill="#FEFCFA" transform="translate(1435,105)"/>
<path d="M0 0 C3.65605195 1.73140727 4.87047372 3.15866978 6.640625 6.90625 C8.30686413 11.72761475 8.45234603 16.31222647 8.41015625 21.375 C8.44012695 22.65117187 8.44012695 22.65117187 8.47070312 23.953125 C8.46618147 29.84936198 7.4071692 34.49673618 3.97265625 39.375 C-0.08354557 42.3935688 -3.91205335 42.90936261 -8.84765625 42.7265625 C-13.4550926 41.98342761 -16.17658736 39.54845709 -18.83984375 35.875 C-21.22770528 30.8479231 -21.27274811 26.10000441 -21.33984375 20.625 C-21.36884766 19.8515625 -21.39785156 19.078125 -21.42773438 18.28125 C-21.49065252 12.51213977 -20.27336178 8.18422827 -17.02734375 3.375 C-11.94598568 -1.35184472 -6.50648098 -2.00585155 0 0 Z " fill="#FEFCFA" transform="translate(928.02734375,105.625)"/>
<path d="M0 0 C3.78200091 2.63860529 6.09309576 5.61547658 7.27734375 10.1171875 C8.54955883 18.67131935 9.09357624 29.1251821 4.6875 36.875 C0.93286843 40.62963157 -2.36820867 42.01499735 -7.625 42.1875 C-12.25164493 42.119793 -14.814433 41.03991776 -18.3125 37.875 C-22.04933813 32.31879437 -21.79509436 26.89419311 -21.75 20.4375 C-21.76998047 19.42623047 -21.78996094 18.41496094 -21.81054688 17.37304688 C-21.80637524 10.97793549 -21.09792149 7.07644953 -17.3125 1.875 C-12.31346795 -2.55271411 -6.0037307 -2.03900288 0 0 Z " fill="#FEFCFA" transform="translate(1571.3125,106.125)"/>
<path d="M0 0 C3.4375 0.1875 3.4375 0.1875 4.4375 1.1875 C4.51075168 4.05017567 4.52988205 6.888219 4.5 9.75 C4.49548828 10.55630859 4.49097656 11.36261719 4.48632812 12.19335938 C4.47450518 14.19143756 4.45656914 16.18947783 4.4375 18.1875 C5.20835938 18.16429688 5.97921875 18.14109375 6.7734375 18.1171875 C7.77632812 18.09914063 8.77921875 18.08109375 9.8125 18.0625 C10.81023437 18.03929688 11.80796875 18.01609375 12.8359375 17.9921875 C15.4375 18.1875 15.4375 18.1875 17.4375 20.1875 C17.6875 22.6875 17.6875 22.6875 17.4375 25.1875 C16.7775 25.8475 16.1175 26.5075 15.4375 27.1875 C11.8075 27.1875 8.1775 27.1875 4.4375 27.1875 C4.9325 46.9875 4.9325 46.9875 5.4375 67.1875 C8.7375 67.5175 12.0375 67.8475 15.4375 68.1875 C17.4375 70.1875 17.4375 70.1875 17.625 73.25 C17.4375 76.1875 17.4375 76.1875 16.4375 77.1875 C14.35810164 77.34022417 12.27231069 77.40945322 10.1875 77.4375 C9.04796875 77.46328125 7.9084375 77.4890625 6.734375 77.515625 C3.11426304 77.1553295 1.31014176 76.37788934 -1.5625 74.1875 C-5.25880393 67.98298984 -5.70659403 62.7991801 -5.66015625 55.703125 C-5.6587413 54.88753113 -5.65732635 54.07193726 -5.65586853 53.23162842 C-5.65028303 50.63354788 -5.63773321 48.03555437 -5.625 45.4375 C-5.61998312 43.67317833 -5.61542054 41.90885531 -5.61132812 40.14453125 C-5.60031835 35.82548744 -5.58306369 31.50650846 -5.5625 27.1875 C-6.531875 27.208125 -7.50125 27.22875 -8.5 27.25 C-11.5625 27.1875 -11.5625 27.1875 -12.5625 26.1875 C-12.6875 22.6875 -12.6875 22.6875 -12.5625 19.1875 C-11.5625 18.1875 -11.5625 18.1875 -8.5 18.125 C-7.0459375 18.1559375 -7.0459375 18.1559375 -5.5625 18.1875 C-5.58570313 17.05570313 -5.60890625 15.92390625 -5.6328125 14.7578125 C-5.65156901 13.27604825 -5.66976934 11.79427688 -5.6875 10.3125 C-5.70425781 9.56613281 -5.72101563 8.81976563 -5.73828125 8.05078125 C-5.7558959 6.09555539 -5.66570189 4.14007979 -5.5625 2.1875 C-3.5625 0.1875 -3.5625 0.1875 0 0 Z " fill="#EB740B" transform="translate(1161.5625,78.8125)"/>
<path d="M0 0 C3.45675373 2.43544013 5.27494988 5.0341628 6.75 8.9375 C7.28699869 12.64122203 7.26496832 16.26402786 7.1875 20 C7.19458984 20.96744141 7.20167969 21.93488281 7.20898438 22.93164062 C7.16093082 28.33212148 6.80386997 32.29322831 3.75 36.9375 C-0.40980958 40.70732743 -4.51146363 41.36211035 -9.96484375 41.2734375 C-13.90383289 40.69437243 -15.68322506 38.87095707 -18.25 35.9375 C-22.65322051 28.1584771 -22.37635016 17.90977525 -20.74609375 9.265625 C-19.29960089 4.8682867 -17.10253857 2.407076 -13.25 -0.0625 C-9.00030284 -2.18734858 -4.33957977 -1.41870877 0 0 Z " fill="#FEFDFB" transform="translate(1058.25,106.0625)"/>
<path d="M0 0 C2.95988575 1.3382215 5.47028789 2.97043155 8 5 C7.28432449 8.20065992 6.80990262 10.09328037 4 12 C1.32520673 11.73904456 -0.60095141 11.1995243 -3 10 C-8.75210328 9.4825345 -8.75210328 9.4825345 -13.875 11.75 C-16.99070977 15.04898682 -18.23491159 17.68522603 -18.31884766 22.21777344 C-18.33871735 23.03832214 -18.35858704 23.85887085 -18.37905884 24.70428467 C-18.39638565 26.01855438 -18.39638565 26.01855438 -18.4140625 27.359375 C-18.43342865 28.26375305 -18.4527948 29.1681311 -18.4727478 30.09991455 C-18.53243831 32.98318099 -18.57888686 35.86648758 -18.625 38.75 C-18.66318947 40.70704848 -18.70224177 42.66408033 -18.7421875 44.62109375 C-18.83813125 49.41392711 -18.92220127 54.20683915 -19 59 C-21.98212913 60.49106457 -24.71609658 60.11941467 -28 60 C-29.7182309 58.2817691 -29.12754321 56.01402251 -29.12939453 53.66992188 C-29.13254669 52.53204224 -29.13569885 51.3941626 -29.13894653 50.22180176 C-29.1369223 48.98329468 -29.13489807 47.7447876 -29.1328125 46.46875 C-29.13376923 45.20736206 -29.13472595 43.94597412 -29.13571167 42.6463623 C-29.13639375 39.97302862 -29.13503529 37.29978563 -29.13037109 34.62646484 C-29.12467381 31.19293309 -29.12795301 27.7594795 -29.13394356 24.32595062 C-29.13841762 21.06104757 -29.13528883 17.79615407 -29.1328125 14.53125 C-29.13483673 13.29274292 -29.13686096 12.05423584 -29.13894653 10.77819824 C-29.13579437 9.6403186 -29.13264221 8.50243896 -29.12939453 7.33007812 C-29.12859894 6.32271606 -29.12780334 5.315354 -29.12698364 4.27746582 C-29 2 -29 2 -28 1 C-21.62658228 0.63924051 -21.62658228 0.63924051 -18.9375 2.1875 C-18.298125 2.455625 -17.65875 2.72375 -17 3 C-16.154375 2.54625 -15.30875 2.0925 -14.4375 1.625 C-9.58666096 -0.66812391 -5.2798982 -0.83406008 0 0 Z " fill="#EB7309" transform="translate(988,96)"/>
<path d="M0 0 C2.38229713 1.20792531 3.23403622 1.75253594 4.25390625 4.24609375 C4.4375 6.25 4.4375 6.25 2.8125 8.5625 C0.4375 10.25 0.4375 10.25 -2.1875 10.0625 C-4.5625 9.25 -4.5625 9.25 -6.5625 8.25 C-12.27584866 7.75997288 -12.27584866 7.75997288 -17.4375 9.875 C-21.93288831 14.89925753 -21.86373916 20.68219065 -21.90625 27.078125 C-21.9208728 27.90834167 -21.93549561 28.73855835 -21.95056152 29.59393311 C-22.01258611 33.12692354 -22.05260245 36.66007901 -22.09423828 40.19335938 C-22.12787587 42.78013726 -22.17298086 45.36653802 -22.21875 47.953125 C-22.2240271 48.75518372 -22.2293042 49.55724243 -22.23474121 50.38360596 C-22.33681751 56.02431751 -22.33681751 56.02431751 -24.5625 58.25 C-28.125 58.4375 -28.125 58.4375 -31.5625 58.25 C-33.2807309 56.5317691 -32.69004321 54.26402251 -32.69189453 51.91992188 C-32.69504669 50.78204224 -32.69819885 49.6441626 -32.70144653 48.47180176 C-32.6994223 47.23329468 -32.69739807 45.9947876 -32.6953125 44.71875 C-32.69626923 43.45736206 -32.69722595 42.19597412 -32.69821167 40.8963623 C-32.69889375 38.22302862 -32.69753529 35.54978563 -32.69287109 32.87646484 C-32.68717381 29.44293309 -32.69045301 26.0094795 -32.69644356 22.57595062 C-32.70091762 19.31104757 -32.69778883 16.04615407 -32.6953125 12.78125 C-32.69733673 11.54274292 -32.69936096 10.30423584 -32.70144653 9.02819824 C-32.69829437 7.8903186 -32.69514221 6.75243896 -32.69189453 5.58007812 C-32.69109894 4.57271606 -32.69030334 3.565354 -32.68948364 2.52746582 C-32.5625 0.25 -32.5625 0.25 -31.5625 -0.75 C-25.17376761 -1.22323944 -25.17376761 -1.22323944 -22.625 0.75 C-22.274375 1.245 -21.92375 1.74 -21.5625 2.25 C-20.964375 1.775625 -20.36625 1.30125 -19.75 0.8125 C-14.02695061 -3.27539242 -6.2063739 -2.85672445 0 0 Z " fill="#EB730A" transform="translate(1282.5625,97.75)"/>
<path d="M0 0 C1.093125 0.00257812 2.18625 0.00515625 3.3125 0.0078125 C4.405625 0.00523438 5.49875 0.00265625 6.625 0 C9.3125 0.1328125 9.3125 0.1328125 10.3125 1.1328125 C10.41143778 2.90727259 10.44049092 4.68567501 10.44189453 6.46289062 C10.44504669 7.60077026 10.44819885 8.7386499 10.45144653 9.91101074 C10.4494223 11.14951782 10.44739807 12.3880249 10.4453125 13.6640625 C10.44626923 14.92545044 10.44722595 16.18683838 10.44821167 17.4864502 C10.44889375 20.15978388 10.44753529 22.83302687 10.44287109 25.50634766 C10.43717381 28.93987941 10.44045301 32.373333 10.44644356 35.80686188 C10.45091762 39.07176493 10.44778883 42.33665843 10.4453125 45.6015625 C10.44733673 46.84006958 10.44936096 48.07857666 10.45144653 49.35461426 C10.44829437 50.4924939 10.44514221 51.63037354 10.44189453 52.80273438 C10.44070114 54.31377747 10.44070114 54.31377747 10.43948364 55.85534668 C10.3125 58.1328125 10.3125 58.1328125 9.3125 59.1328125 C7.31450428 59.23155066 5.31292842 59.26253049 3.3125 59.2578125 C2.219375 59.26039063 1.12625 59.26296875 0 59.265625 C-2.6875 59.1328125 -2.6875 59.1328125 -3.6875 58.1328125 C-3.78643778 56.35835241 -3.81549092 54.57994999 -3.81689453 52.80273438 C-3.82004669 51.66485474 -3.82319885 50.5269751 -3.82644653 49.35461426 C-3.8244223 48.11610718 -3.82239807 46.8776001 -3.8203125 45.6015625 C-3.82126923 44.34017456 -3.82222595 43.07878662 -3.82321167 41.7791748 C-3.82389375 39.10584112 -3.82253529 36.43259813 -3.81787109 33.75927734 C-3.81217381 30.32574559 -3.81545301 26.892292 -3.82144356 23.45876312 C-3.82591762 20.19386007 -3.82278883 16.92896657 -3.8203125 13.6640625 C-3.82233673 12.42555542 -3.82436096 11.18704834 -3.82644653 9.91101074 C-3.82329437 8.7731311 -3.82014221 7.63525146 -3.81689453 6.46289062 C-3.81609894 5.45552856 -3.81530334 4.4481665 -3.81448364 3.41027832 C-3.62948517 0.09231012 -3.35037288 0.16557075 0 0 Z " fill="#052F65" transform="translate(630.6875,96.8671875)"/>
<path d="M0 0 C3.5 0.125 3.5 0.125 4.5 1.125 C4.62406815 3.33294411 4.67802278 5.54484486 4.70532227 7.75610352 C4.71522186 8.44875305 4.72512146 9.14140259 4.73532104 9.8550415 C4.7670203 12.15462779 4.79172651 14.45423477 4.81640625 16.75390625 C4.83696852 18.34432018 4.85796479 19.93472855 4.87937927 21.52513123 C4.93467509 25.71889763 4.9840511 29.91271395 5.03222656 34.10656738 C5.08238691 38.38293928 5.13810144 42.65923834 5.19335938 46.93554688 C5.30103274 55.33196973 5.40245716 63.72845338 5.5 72.125 C8.14 73.115 10.78 74.105 13.5 75.125 C13.5 77.765 13.5 80.405 13.5 83.125 C2.74683455 83.98601859 2.74683455 83.98601859 -1.125 80.75 C-4.71302667 76.78428632 -4.64438974 74.15931692 -4.62939453 69.02905273 C-4.63114685 68.29884918 -4.63289917 67.56864563 -4.63470459 66.8163147 C-4.63911436 64.39705038 -4.63618849 61.97785885 -4.6328125 59.55859375 C-4.63348572 57.88232916 -4.63445589 56.20606467 -4.63571167 54.52980042 C-4.6371874 51.01505606 -4.63503782 47.50033711 -4.63037109 43.9855957 C-4.62466949 39.47033134 -4.62795633 34.95512635 -4.63394356 30.43986416 C-4.6375488 26.97845508 -4.63641083 23.5170602 -4.63381577 20.05565071 C-4.63314662 18.39019832 -4.63397448 16.72474466 -4.63629532 15.05929375 C-4.63882172 12.73667843 -4.63498166 10.41416074 -4.62939453 8.09155273 C-4.63141876 7.39698471 -4.63344299 6.70241669 -4.63552856 5.98680115 C-4.60945021 0.16462322 -4.60945021 0.16462322 0 0 Z " fill="#EB6F02" transform="translate(1518.5,72.875)"/>
<path d="M0 0 C1.66292316 0.6998135 3.27485057 1.51815134 4.875 2.3515625 C5.535 2.6815625 6.195 3.0115625 6.875 3.3515625 C6.125 9.1015625 6.125 9.1015625 3.875 11.3515625 C0.9324037 11.04504205 -1.47042308 10.67885096 -4.125 9.3515625 C-7.76276343 9.07701432 -10.45477182 9.0926107 -13.875 10.4140625 C-17.30523561 13.3678765 -18.80991361 17.05300958 -19.4163208 21.47674561 C-19.54831474 23.83197827 -19.59213386 26.17236755 -19.6015625 28.53125 C-19.62493179 29.81130417 -19.62493179 29.81130417 -19.64877319 31.11721802 C-19.69599512 33.82032475 -19.7239781 36.52317584 -19.75 39.2265625 C-19.78648204 41.95119515 -19.82701094 44.67568241 -19.87265015 47.400177 C-19.89990403 49.0905807 -19.92124348 50.78109183 -19.93618774 52.47164917 C-20.01427926 58.24084176 -20.01427926 58.24084176 -21.125 59.3515625 C-24.625 59.4765625 -24.625 59.4765625 -28.125 59.3515625 C-29.8432309 57.6333316 -29.25254321 55.36558501 -29.25439453 53.02148438 C-29.25754669 51.88360474 -29.26069885 50.7457251 -29.26394653 49.57336426 C-29.2619223 48.33485718 -29.25989807 47.0963501 -29.2578125 45.8203125 C-29.25876923 44.55892456 -29.25972595 43.29753662 -29.26071167 41.9979248 C-29.26139375 39.32459112 -29.26003529 36.65134813 -29.25537109 33.97802734 C-29.24967381 30.54449559 -29.25295301 27.111042 -29.25894356 23.67751312 C-29.26341762 20.41261007 -29.26028883 17.14771657 -29.2578125 13.8828125 C-29.25983673 12.64430542 -29.26186096 11.40579834 -29.26394653 10.12976074 C-29.26079437 8.9918811 -29.25764221 7.85400146 -29.25439453 6.68164062 C-29.25359894 5.67427856 -29.25280334 4.6669165 -29.25198364 3.62902832 C-29.125 1.3515625 -29.125 1.3515625 -28.125 0.3515625 C-24.6875 0.1015625 -24.6875 0.1015625 -21.125 0.3515625 C-20.465 1.3415625 -19.805 2.3315625 -19.125 3.3515625 C-18.17625 2.6915625 -17.2275 2.0315625 -16.25 1.3515625 C-11.12869247 -1.56156992 -5.60490676 -1.71032081 0 0 Z " fill="#EB7003" transform="translate(1498.125,96.6484375)"/>
<path d="M0 0 C4.30563957 2.84334689 6.479908 5.11349422 8 10 C8.8430696 18.20522385 8.76890436 25.11158259 4 32 C0.19403635 34.36989901 -3.61509639 34.70611768 -8 34 C-12.08288846 31.60352199 -13.58700375 29.43817765 -15 25 C-15.67140992 17.62321044 -16.03738889 10.4041341 -12 4 C-8.26016326 -0.0514898 -5.44296871 -0.85941611 0 0 Z " fill="#FAFAFC" transform="translate(745,108)"/>
<path d="M0 0 C3.5 0.125 3.5 0.125 4.5 1.125 C4.59893778 2.89946009 4.62799092 4.67786251 4.62939453 6.45507812 C4.63254669 7.59295776 4.63569885 8.7308374 4.63894653 9.90319824 C4.6369223 11.14170532 4.63489807 12.3802124 4.6328125 13.65625 C4.63376923 14.91763794 4.63472595 16.17902588 4.63571167 17.4786377 C4.63639375 20.15197138 4.63503529 22.82521437 4.63037109 25.49853516 C4.62467381 28.93206691 4.62795301 32.3655205 4.63394356 35.79904938 C4.63841762 39.06395243 4.63528883 42.32884593 4.6328125 45.59375 C4.63483673 46.83225708 4.63686096 48.07076416 4.63894653 49.34680176 C4.63579437 50.4846814 4.63264221 51.62256104 4.62939453 52.79492188 C4.62820114 54.30596497 4.62820114 54.30596497 4.62698364 55.84753418 C4.5 58.125 4.5 58.125 3.5 59.125 C0 59.25 0 59.25 -3.5 59.125 C-5.2182309 57.4067691 -4.62754321 55.13902251 -4.62939453 52.79492188 C-4.63254669 51.65704224 -4.63569885 50.5191626 -4.63894653 49.34680176 C-4.6369223 48.10829468 -4.63489807 46.8697876 -4.6328125 45.59375 C-4.63376923 44.33236206 -4.63472595 43.07097412 -4.63571167 41.7713623 C-4.63639375 39.09802862 -4.63503529 36.42478563 -4.63037109 33.75146484 C-4.62467381 30.31793309 -4.62795301 26.8844795 -4.63394356 23.45095062 C-4.63841762 20.18604757 -4.63528883 16.92115407 -4.6328125 13.65625 C-4.63483673 12.41774292 -4.63686096 11.17923584 -4.63894653 9.90319824 C-4.63579437 8.7653186 -4.63264221 7.62743896 -4.62939453 6.45507812 C-4.62859894 5.44771606 -4.62780334 4.440354 -4.62698364 3.40246582 C-4.41906181 -0.32663546 -3.88134459 0.13861945 0 0 Z " fill="#EB7208" transform="translate(1009.5,96.875)"/>
<path d="M0 0 C0.97453125 0.02255859 1.9490625 0.04511719 2.953125 0.06835938 C5.34535515 0.12699247 7.7343615 0.20898847 10.125 0.3125 C10.90675896 11.20500814 10.90675896 11.20500814 7.875 15.5 C2.2445759 19.21096134 -4.31188754 18.98495005 -10.875 18.3125 C-13.94865786 16.50446596 -15.30519732 15.45210536 -16.875 12.3125 C-17.3125 9 -17.3125 9 -16.875 5.3125 C-11.85860667 -0.48014055 -7.3488975 -0.32363031 0 0 Z " fill="#FEFCFA" transform="translate(832.875,129.6875)"/>
<path d="M0 0 C2.99417353 2.55385389 5.3603812 5.2832624 7.125 8.8125 C7.125 10.7925 7.125 12.7725 7.125 14.8125 C-2.445 14.8125 -12.015 14.8125 -21.875 14.8125 C-21.875 6.56925676 -21.875 6.56925676 -17.875 1.8125 C-12.94593274 -2.536677 -5.87012005 -2.4246148 0 0 Z " fill="#FEFCFB" transform="translate(1219.875,106.1875)"/>
<path d="M0 0 C1.18239258 0.02707031 1.18239258 0.02707031 2.38867188 0.0546875 C4.32214261 0.10155952 6.25498285 0.1732959 8.1875 0.25 C8.97262397 8.25826446 8.97262397 8.25826446 5.8125 12.25 C2.17541235 15.0211144 0.33658652 15.42722649 -4.1875 15.5 C-5.62222656 15.53867188 -5.62222656 15.53867188 -7.0859375 15.578125 C-10.26274101 15.19581627 -11.59064349 14.53371794 -13.8125 12.25 C-14.5940534 6.77912621 -14.5940534 6.77912621 -13.8125 4.25 C-9.6652681 -0.42788165 -5.82011475 -0.2536848 0 0 Z " fill="#F8F9FA" transform="translate(554.8125,130.75)"/>
<path d="M0 0 C4.06580996 1.47061211 4.81163239 2.64838047 6.875 6.5 C8 10 8 10 7 13 C-0.59 13 -8.18 13 -16 13 C-17 9 -17 9 -15.8125 5.9375 C-11.76514847 -0.62200076 -7.21455596 -0.83154785 0 0 Z " fill="#EDF0F4" transform="translate(358,108)"/>
<path d="M0 0 C1.093125 0.00257812 2.18625 0.00515625 3.3125 0.0078125 C4.405625 0.00523438 5.49875 0.00265625 6.625 0 C9.3125 0.1328125 9.3125 0.1328125 10.3125 1.1328125 C10.41123816 3.13080822 10.44221799 5.13238408 10.4375 7.1328125 C10.44007813 8.2259375 10.44265625 9.3190625 10.4453125 10.4453125 C10.3125 13.1328125 10.3125 13.1328125 9.3125 14.1328125 C7.31450428 14.23155066 5.31292842 14.26253049 3.3125 14.2578125 C2.219375 14.26039062 1.12625 14.26296875 0 14.265625 C-2.6875 14.1328125 -2.6875 14.1328125 -3.6875 13.1328125 C-3.78623816 11.13481678 -3.81721799 9.13324092 -3.8125 7.1328125 C-3.81507813 6.0396875 -3.81765625 4.9465625 -3.8203125 3.8203125 C-3.64172116 0.20646411 -3.61384839 0.17859134 0 0 Z " fill="#11396C" transform="translate(630.6875,72.8671875)"/>
<path d="M0 0 C0.721875 0.00257812 1.44375 0.00515625 2.1875 0.0078125 C2.909375 0.00523438 3.63125 0.00265625 4.375 0 C6.1875 0.1328125 6.1875 0.1328125 7.1875 1.1328125 C7.25976502 2.98568752 7.2713122 4.84115128 7.25 6.6953125 C7.24097656 7.70722656 7.23195313 8.71914062 7.22265625 9.76171875 C7.21105469 10.54417969 7.19945312 11.32664062 7.1875 12.1328125 C5.70843108 12.15970466 4.22922517 12.17915871 2.75 12.1953125 C1.51443359 12.21271484 1.51443359 12.21271484 0.25390625 12.23046875 C-1.8125 12.1328125 -1.8125 12.1328125 -2.8125 11.1328125 C-2.91073937 9.46852199 -2.94223631 7.79999319 -2.9375 6.1328125 C-2.94007813 5.2253125 -2.94265625 4.3178125 -2.9453125 3.3828125 C-2.78365658 0.64417106 -2.73885828 0.2006922 0 0 Z " fill="#EB7106" transform="translate(1006.8125,72.8671875)"/>
</svg>
